<svg width="36" height="36" viewBox="0 0 36 36" fill="none" xmlns="http://www.w3.org/2000/svg">
<g id="Group">
<path id="Vector" fill-rule="evenodd" clip-rule="evenodd" d="M1.25581 35.9999H34.5282C34.8612 35.9999 35.1807 35.8676 35.4162 35.6321C35.6517 35.3966 35.784 35.0772 35.784 34.7441C35.784 34.411 35.6517 34.0916 35.4162 33.8561C35.1807 33.6206 34.8612 33.4883 34.5282 33.4883H1.25581C0.922751 33.4883 0.60333 33.6206 0.367819 33.8561C0.132309 34.0916 0 34.411 0 34.7441C0 35.0772 0.132309 35.3966 0.367819 35.6321C0.60333 35.8676 0.922751 35.9999 1.25581 35.9999Z" fill="#828282"/>
<path id="Vector_2" fill-rule="evenodd" clip-rule="evenodd" d="M14.4352 36C14.1022 36 13.7828 35.8677 13.5472 35.6322C13.3117 35.3967 13.1794 35.0772 13.1794 34.7442V23.8605C13.1803 23.3056 13.4011 22.7738 13.7934 22.3815C14.1858 21.9891 14.7176 21.7683 15.2724 21.7674H20.2957C20.8503 21.7692 21.3816 21.9903 21.7737 22.3824C22.1659 22.7746 22.387 23.3059 22.3887 23.8605V34.7442C22.3887 35.0772 22.2564 35.3967 22.0209 35.6322C21.7854 35.8677 21.466 36 21.1329 36H26.1562C26.4892 36 26.8087 35.8677 27.0442 35.6322C27.2797 35.3967 27.412 35.0772 27.412 34.7442V2.93023C27.412 2.15309 27.1033 1.40777 26.5537 0.858245C26.0042 0.30872 25.2589 0 24.4818 0H11.0864C10.3093 0 9.56394 0.30872 9.01442 0.858245C8.46489 1.40777 8.15617 2.15309 8.15617 2.93023V34.7442C8.15617 35.4374 8.71877 36 9.41198 36H14.4352ZM19.8771 24.2791V33.4884H15.6911V24.2791H19.8771ZM14.8538 18.8372H14.0166C13.7946 18.8372 13.5816 18.749 13.4246 18.592C13.2676 18.435 13.1794 18.222 13.1794 18V17.1628C13.1794 16.9407 13.2676 16.7278 13.4246 16.5708C13.5816 16.4138 13.7946 16.3256 14.0166 16.3256H14.8538C15.0759 16.3256 15.2888 16.4138 15.4458 16.5708C15.6028 16.7278 15.6911 16.9407 15.6911 17.1628V18C15.6911 18.222 15.6028 18.435 15.4458 18.592C15.2888 18.749 15.0759 18.8372 14.8538 18.8372ZM21.5515 18.8372H20.7143C20.4923 18.8372 20.2793 18.749 20.1223 18.592C19.9653 18.435 19.8771 18.222 19.8771 18V17.1628C19.8771 16.9407 19.9653 16.7278 20.1223 16.5708C20.2793 16.4138 20.4923 16.3256 20.7143 16.3256H21.5515C21.7736 16.3256 21.9865 16.4138 22.1435 16.5708C22.3005 16.7278 22.3887 16.9407 22.3887 17.1628V18C22.3887 18.222 22.3005 18.435 22.1435 18.592C21.9865 18.749 21.7736 18.8372 21.5515 18.8372ZM14.8538 13.814H14.0166C13.7946 13.814 13.5816 13.7257 13.4246 13.5687C13.2676 13.4117 13.1794 13.1988 13.1794 12.9767V12.1395C13.1794 11.9175 13.2676 11.7045 13.4246 11.5475C13.5816 11.3905 13.7946 11.3023 14.0166 11.3023H14.8538C15.0759 11.3023 15.2888 11.3905 15.4458 11.5475C15.6028 11.7045 15.6911 11.9175 15.6911 12.1395V12.9767C15.6911 13.1988 15.6028 13.4117 15.4458 13.5687C15.2888 13.7257 15.0759 13.814 14.8538 13.814ZM21.5515 13.814H20.7143C20.4923 13.814 20.2793 13.7257 20.1223 13.5687C19.9653 13.4117 19.8771 13.1988 19.8771 12.9767V12.1395C19.8771 11.9175 19.9653 11.7045 20.1223 11.5475C20.2793 11.3905 20.4923 11.3023 20.7143 11.3023H21.5515C21.7736 11.3023 21.9865 11.3905 22.1435 11.5475C22.3005 11.7045 22.3887 11.9175 22.3887 12.1395V12.9767C22.3887 13.1988 22.3005 13.4117 22.1435 13.5687C21.9865 13.7257 21.7736 13.814 21.5515 13.814ZM14.8538 8.7907H14.0166C13.7946 8.7907 13.5816 8.70249 13.4246 8.54548C13.2676 8.38848 13.1794 8.17553 13.1794 7.95349V7.11628C13.1794 6.89424 13.2676 6.68129 13.4246 6.52428C13.5816 6.36728 13.7946 6.27907 14.0166 6.27907H14.8538C15.0759 6.27907 15.2888 6.36728 15.4458 6.52428C15.6028 6.68129 15.6911 6.89424 15.6911 7.11628V7.95349C15.6911 8.17553 15.6028 8.38848 15.4458 8.54548C15.2888 8.70249 15.0759 8.7907 14.8538 8.7907ZM21.5515 8.7907H20.7143C20.4923 8.7907 20.2793 8.70249 20.1223 8.54548C19.9653 8.38848 19.8771 8.17553 19.8771 7.95349V7.11628C19.8771 6.89424 19.9653 6.68129 20.1223 6.52428C20.2793 6.36728 20.4923 6.27907 20.7143 6.27907H21.5515C21.7736 6.27907 21.9865 6.36728 22.1435 6.52428C22.3005 6.68129 22.3887 6.89424 22.3887 7.11628V7.95349C22.3887 8.17553 22.3005 8.38848 22.1435 8.54548C21.9865 8.70249 21.7736 8.7907 21.5515 8.7907ZM6.48175 6.69767H4.38873C3.61158 6.69767 2.86627 7.00639 2.31674 7.55592C1.76722 8.10544 1.4585 8.85076 1.4585 9.62791V34.7442C1.4585 35.4374 2.0211 36 2.71431 36H6.76305C6.57701 35.6075 6.48091 35.1785 6.48175 34.7442V6.69767ZM29.0864 6.69767V34.7442C29.0864 35.1929 28.9859 35.6199 28.8051 36H32.8538C33.1869 36 33.5063 35.8677 33.7418 35.6322C33.9774 35.3967 34.1097 35.0772 34.1097 34.7442V9.62791C34.1097 8.85076 33.8009 8.10544 33.2514 7.55592C32.7019 7.00639 31.9566 6.69767 31.1794 6.69767H29.0864Z" fill="#828282"/>
</g>
</svg>
